<svg xmlns="http://www.w3.org/2000/svg" xmlns:xlink="http://www.w3.org/1999/xlink" contentStyleType="text/css" data-diagram-type="STATE" height="1233px" preserveAspectRatio="none" style="width:538px;height:1233px;background:#FFFFFF;" version="1.1" viewBox="0 0 538 1233" width="538px" zoomAndPan="magnify"><?plantuml 1.2026.6?><defs/><g><g class="entity" data-qualified-name="Seed" data-source-line="5" id="ent0001"><path d="M19.5,103 L433.8001,103 A12.5,12.5 0 0 1 446.3001,115.5 L446.3001,129.2969 L7,129.2969 L7,115.5 A12.5,12.5 0 0 1 19.5,103" fill="#F1F1F1"/><rect fill="none" height="347.2969" rx="12.5" ry="12.5" style="stroke:#181818;stroke-width:0.5;" width="439.3001" x="7" y="103"/><line style="stroke:#181818;stroke-width:0.5;" x1="7" x2="446.3001" y1="129.2969" y2="129.2969"/><text fill="#000000" font-family="sans-serif" font-size="14" lengthAdjust="spacing" textLength="69.9997" x="191.6502" y="120.9951">&#12471;&#12540;&#12489;&#27573;&#38542;</text><g class="entity" data-qualified-name="Seed.SelectType" data-source-line="7" id="ent0002"><rect fill="#F1F1F1" height="50" rx="12.5" ry="12.5" style="stroke:#181818;stroke-width:0.5;" width="117.9996" x="99.85" y="197.2969"/><line style="stroke:#181818;stroke-width:0.5;" x1="99.85" x2="217.8496" y1="223.5938" y2="223.5938"/><text fill="#000000" font-family="sans-serif" font-size="14" lengthAdjust="spacing" textLength="97.9996" x="109.85" y="215.292">&#12514;&#12487;&#12523;&#22411;&#12434;&#36984;&#25246;</text></g><g class="entity" data-qualified-name="Seed.AIGenerate" data-source-line="8" id="ent0003"><rect fill="#F1F1F1" height="50" rx="12.5" ry="12.5" style="stroke:#181818;stroke-width:0.5;" width="117.7057" x="19" y="300.2969"/><line style="stroke:#181818;stroke-width:0.5;" x1="19" x2="136.7057" y1="326.5938" y2="326.5938"/><text fill="#000000" font-family="sans-serif" font-size="14" lengthAdjust="spacing" textLength="97.7057" x="29" y="318.292">AI&#12395;&#29983;&#25104;&#12434;&#20381;&#38972;</text></g><g class="entity" data-qualified-name="Seed.HumanWrite" data-source-line="9" id="ent0004"><rect fill="#F1F1F1" height="50" rx="12.5" ry="12.5" style="stroke:#181818;stroke-width:0.5;" width="169.399" x="167.15" y="300.2969"/><line style="stroke:#181818;stroke-width:0.5;" x1="167.15" x2="336.549" y1="326.5938" y2="326.5938"/><text fill="#000000" font-family="sans-serif" font-size="14" lengthAdjust="spacing" textLength="149.399" x="177.15" y="318.292">&#33258;&#20998;&#12391;PlantUML&#12434;&#35352;&#36848;</text></g><g class="entity" data-qualified-name="Seed.Drafted" data-source-line="10" id="ent0005"><rect fill="#F1F1F1" height="50" rx="12.5" ry="12.5" style="stroke:#181818;stroke-width:0.5;" width="117.9996" x="98.85" y="387.2969"/><line style="stroke:#181818;stroke-width:0.5;" x1="98.85" x2="216.8496" y1="413.5938" y2="413.5938"/><text fill="#000000" font-family="sans-serif" font-size="14" lengthAdjust="spacing" textLength="97.9996" x="108.85" y="405.292">&#21021;&#26399;&#12514;&#12487;&#12523;&#23436;&#25104;</text></g><g class="start_entity" data-qualified-name="Seed..start.Seed" data-source-line="6" id="ent0014"><ellipse cx="158.85" cy="150.2969" fill="#222222" rx="10" ry="10" style="stroke:#222222;stroke-width:1;"/></g><!--link *start*Seed to SelectType--><g class="link" data-entity-1="ent0014" data-entity-2="ent0002" data-link-type="dependency" data-source-line="6" id="lnk15"><path d="M158.85,160.7369 C158.85,169.9969 158.85,179.4869 158.85,191.9769" fill="none" id="*start*Seed-to-SelectType" style="stroke:#181818;stroke-width:1;"/><polygon fill="#181818" points="158.85,196.9769,162.85,187.9769,158.85,191.9769,154.85,187.9769,158.85,196.9769" style="stroke:#181818;stroke-width:1;stroke-linejoin:miter;stroke-miterlimit:10;"/></g><!--link SelectType to AIGenerate--><g class="link" data-entity-1="ent0002" data-entity-2="ent0003" data-link-type="dependency" data-source-line="11" id="lnk16"><path d="M99.46,234.0369 C82.19,240.2269 65.2,249.9569 54.85,265.2969 C47.78,275.7769 49.1967,284.4245 55.6567,295.5345" fill="none" id="SelectType-to-AIGenerate" style="stroke:#181818;stroke-width:1;"/><polygon fill="#181818" points="58.17,299.8569,57.104,290.0659,55.6567,295.5345,50.1881,294.0872,58.17,299.8569" style="stroke:#181818;stroke-width:1;stroke-linejoin:miter;stroke-miterlimit:10;"/><text fill="#000000" font-family="sans-serif" font-size="13" lengthAdjust="spacing" textLength="186.0118" x="55.85" y="278.3638">&#35201;&#27714;&#12434;&#26360;&#12356;&#12390; Generate Model</text></g><!--link SelectType to HumanWrite--><g class="link" data-entity-1="ent0002" data-entity-2="ent0004" data-link-type="dependency" data-source-line="12" id="lnk17"><path d="M218.09,243.7269 C227.61,249.3769 236.42,256.4669 242.85,265.2969 C250.05,275.1769 252.2677,283.4932 252.8477,294.9732" fill="none" id="SelectType-to-HumanWrite" style="stroke:#181818;stroke-width:1;"/><polygon fill="#181818" points="253.1,299.9669,256.6408,290.7765,252.8477,294.9732,248.651,291.1802,253.1,299.9669" style="stroke:#181818;stroke-width:1;stroke-linejoin:miter;stroke-miterlimit:10;"/><text fill="#000000" font-family="sans-serif" font-size="13" lengthAdjust="spacing" textLength="170.0601" x="251.24" y="278.3638">Source &#12395; PlantUML &#12434;&#36028;&#12427;</text></g><!--link AIGenerate to Drafted--><g class="link" data-entity-1="ent0003" data-entity-2="ent0005" data-link-type="dependency" data-source-line="13" id="lnk18"><path d="M100.56,350.4269 C111.28,361.8169 120.6228,371.7362 131.3828,383.1662" fill="none" id="AIGenerate-to-Drafted" style="stroke:#181818;stroke-width:1;"/><polygon fill="#181818" points="134.81,386.8069,131.5535,377.512,131.3828,383.1662,125.7285,382.9955,134.81,386.8069" style="stroke:#181818;stroke-width:1;stroke-linejoin:miter;stroke-miterlimit:10;"/></g><!--link HumanWrite to Drafted--><g class="link" data-entity-1="ent0004" data-entity-2="ent0005" data-link-type="dependency" data-source-line="14" id="lnk19"><path d="M224.92,350.6569 C212.33,362.0369 201.0893,372.2041 188.4993,383.5841" fill="none" id="HumanWrite-to-Drafted" style="stroke:#181818;stroke-width:1;"/><polygon fill="#181818" points="184.79,386.9369,194.1489,383.8693,188.4993,383.5841,188.7845,377.9344,184.79,386.9369" style="stroke:#181818;stroke-width:1;stroke-linejoin:miter;stroke-miterlimit:10;"/></g></g><g class="entity" data-qualified-name="Review" data-source-line="17" id="ent0006"><path d="M61.8,527.29 L391.51,527.29 A12.5,12.5 0 0 1 404.01,539.79 L404.01,553.5869 L49.3,553.5869 L49.3,539.79 A12.5,12.5 0 0 1 61.8,527.29" fill="#F1F1F1"/><rect fill="none" height="466.2969" rx="12.5" ry="12.5" style="stroke:#181818;stroke-width:0.5;" width="354.71" x="49.3" y="527.29"/><line style="stroke:#181818;stroke-width:0.5;" x1="49.3" x2="404.01" y1="553.5869" y2="553.5869"/><text fill="#000000" font-family="sans-serif" font-size="14" lengthAdjust="spacing" textLength="83.9996" x="184.6552" y="545.2851">&#12524;&#12499;&#12517;&#12540;&#27573;&#38542;</text><g class="entity" data-qualified-name="Review.Inspecting" data-source-line="19" id="ent0007"><rect fill="#F1F1F1" height="50" rx="12.5" ry="12.5" style="stroke:#181818;stroke-width:0.5;" width="201.9992" x="154.15" y="621.5869"/><line style="stroke:#181818;stroke-width:0.5;" x1="154.15" x2="356.1492" y1="647.8838" y2="647.8838"/><text fill="#000000" font-family="sans-serif" font-size="14" lengthAdjust="spacing" textLength="181.9992" x="164.15" y="639.582">&#12514;&#12487;&#12523;&#12398;&#30906;&#35469;&#12539;&#12510;&#12540;&#12459;&#12540;&#20184;&#12369;</text></g><g class="entity" data-qualified-name="Review.Asking" data-source-line="20" id="ent0008"><rect fill="#F1F1F1" height="50" rx="12.5" ry="12.5" style="stroke:#181818;stroke-width:0.5;" width="117.7057" x="75.3" y="724.5869"/><line style="stroke:#181818;stroke-width:0.5;" x1="75.3" x2="193.0057" y1="750.8838" y2="750.8838"/><text fill="#000000" font-family="sans-serif" font-size="14" lengthAdjust="spacing" textLength="97.7057" x="85.3" y="742.582">AI&#12408;&#36074;&#21839;&#12539;&#25351;&#31034;</text></g><g class="entity" data-qualified-name="Review.Answering" data-source-line="21" id="ent0009"><rect fill="#F1F1F1" height="50" rx="12.5" ry="12.5" style="stroke:#181818;stroke-width:0.5;" width="145.7056" x="61.3" y="827.5869"/><line style="stroke:#181818;stroke-width:0.5;" x1="61.3" x2="207.0056" y1="853.8838" y2="853.8838"/><text fill="#000000" font-family="sans-serif" font-size="14" lengthAdjust="spacing" textLength="125.7056" x="71.3" y="845.582">AI&#12398;&#22238;&#31572;&#12539;&#20462;&#27491;&#25552;&#26696;</text></g><g class="entity" data-qualified-name="Review.Editing" data-source-line="22" id="ent0010"><rect fill="#F1F1F1" height="50" rx="12.5" ry="12.5" style="stroke:#181818;stroke-width:0.5;" width="224.4485" x="142.93" y="930.5869"/><line style="stroke:#181818;stroke-width:0.5;" x1="142.93" x2="367.3785" y1="956.8838" y2="956.8838"/><text fill="#000000" font-family="sans-serif" font-size="14" lengthAdjust="spacing" textLength="204.4485" x="152.93" y="948.582">&#12514;&#12487;&#12523;&#12408;&#21453;&#26144;(Apply)&#12539;&#30452;&#25509;&#20462;&#27491;</text></g><g class="start_entity" data-qualified-name="Review..start.Review" data-source-line="18" id="ent0020"><ellipse cx="255.15" cy="574.5869" fill="#222222" rx="10" ry="10" style="stroke:#222222;stroke-width:1;"/></g><!--link *start*Review to Inspecting--><g class="link" data-entity-1="ent0020" data-entity-2="ent0007" data-link-type="dependency" data-source-line="18" id="lnk21"><path d="M255.15,585.0269 C255.15,594.2869 255.15,603.7769 255.15,616.2669" fill="none" id="*start*Review-to-Inspecting" style="stroke:#181818;stroke-width:1;"/><polygon fill="#181818" points="255.15,621.2669,259.15,612.2669,255.15,616.2669,251.15,612.2669,255.15,621.2669" style="stroke:#181818;stroke-width:1;stroke-linejoin:miter;stroke-miterlimit:10;"/></g><!--link Inspecting to Asking--><g class="link" data-entity-1="ent0007" data-entity-2="ent0008" data-link-type="dependency" data-source-line="23" id="lnk22"><path d="M153.8,671.7269 C146.64,676.6369 140.26,682.5169 135.15,689.5869 C128.07,699.3869 126.7778,707.7153 128.0078,719.2053" fill="none" id="Inspecting-to-Asking" style="stroke:#181818;stroke-width:1;"/><polygon fill="#181818" points="128.54,724.1769,131.5593,714.8022,128.0078,719.2053,123.6048,715.6538,128.54,724.1769" style="stroke:#181818;stroke-width:1;stroke-linejoin:miter;stroke-miterlimit:10;"/><text fill="#000000" font-family="sans-serif" font-size="13" lengthAdjust="spacing" textLength="104.0001" x="136.15" y="702.6538">&#27671;&#12395;&#12394;&#12427;&#28857;&#12364;&#12354;&#12427;</text></g><!--link Asking to Answering--><g class="link" data-entity-1="ent0008" data-entity-2="ent0009" data-link-type="dependency" data-source-line="24" id="lnk23"><path d="M134.15,775.0369 C134.15,790.9169 134.15,806.5269 134.15,822.3669" fill="none" id="Asking-to-Answering" style="stroke:#181818;stroke-width:1;"/><polygon fill="#181818" points="134.15,827.3669,138.15,818.3669,134.15,822.3669,130.15,818.3669,134.15,827.3669" style="stroke:#181818;stroke-width:1;stroke-linejoin:miter;stroke-miterlimit:10;"/></g><!--link Answering to Editing--><g class="link" data-entity-1="ent0009" data-entity-2="ent0010" data-link-type="dependency" data-source-line="25" id="lnk24"><path d="M128.54,877.9969 C127.31,889.4869 128.07,902.7869 135.15,912.5869 C140.19,919.5669 142.3653,922.5563 149.4053,927.4163" fill="none" id="Answering-to-Editing" style="stroke:#181818;stroke-width:1;"/><polygon fill="#181818" points="153.52,930.2569,148.3859,921.852,149.4053,927.4163,143.841,928.4356,153.52,930.2569" style="stroke:#181818;stroke-width:1;stroke-linejoin:miter;stroke-miterlimit:10;"/><text fill="#000000" font-family="sans-serif" font-size="13" lengthAdjust="spacing" textLength="104.0001" x="136.15" y="908.6538">&#25552;&#26696;&#12434;&#21463;&#12369;&#20837;&#12428;&#12427;</text></g><!--link Editing to Inspecting--><g class="link" data-entity-1="ent0010" data-entity-2="ent0007" data-link-type="dependency" data-source-line="26" id="lnk25"><path d="M289.66,930.1869 C327.31,900.2769 380.01,846.8569 362.15,792.5869 C346.21,744.1469 310.6953,702.1723 284.4553,675.4823" fill="none" id="Editing-to-Inspecting" style="stroke:#181818;stroke-width:1;"/><polygon fill="#181818" points="280.95,671.9169,284.4073,681.139,284.4553,675.4823,290.112,675.5304,280.95,671.9169" style="stroke:#181818;stroke-width:1;stroke-linejoin:miter;stroke-miterlimit:10;"/></g><!--link Inspecting to Editing--><g class="link" data-entity-1="ent0007" data-entity-2="ent0010" data-link-type="dependency" data-source-line="27" id="lnk26"><path d="M254.49,671.9569 C253.75,700.7669 252.59,750.1669 252.15,792.5869 C251.65,841.3869 253.0445,893.4596 254.0945,925.1696" fill="none" id="Inspecting-to-Editing" style="stroke:#181818;stroke-width:1;"/><polygon fill="#181818" points="254.26,930.1669,257.96,921.0394,254.0945,925.1696,249.9643,921.3042,254.26,930.1669" style="stroke:#181818;stroke-width:1;stroke-linejoin:miter;stroke-miterlimit:10;"/><text fill="#000000" font-family="sans-serif" font-size="13" lengthAdjust="spacing" textLength="104.0001" x="253.15" y="805.6538">&#12477;&#12540;&#12473;&#12434;&#30452;&#25509;&#32232;&#38598;</text></g></g><g class="entity" data-qualified-name="Agreed" data-source-line="30" id="ent0011"><rect fill="#F1F1F1" height="50" rx="12.5" ry="12.5" style="stroke:#181818;stroke-width:0.5;" width="113.7069" x="9.8" y="1070.59"/><line style="stroke:#181818;stroke-width:0.5;" x1="9.8" x2="123.5069" y1="1096.8869" y2="1096.8869"/><text fill="#000000" font-family="sans-serif" font-size="14" lengthAdjust="spacing" textLength="93.7069" x="19.8" y="1088.5851">&#21512;&#24847; (Agreed)</text></g><g class="entity" data-qualified-name="Postponed" data-source-line="31" id="ent0012"><rect fill="#F1F1F1" height="50" rx="12.5" ry="12.5" style="stroke:#181818;stroke-width:0.5;" width="136.9901" x="158.16" y="1070.59"/><line style="stroke:#181818;stroke-width:0.5;" x1="158.16" x2="295.1501" y1="1096.8869" y2="1096.8869"/><text fill="#000000" font-family="sans-serif" font-size="14" lengthAdjust="spacing" textLength="116.9901" x="168.16" y="1088.5851">&#20445;&#30041; (Postponed)</text></g><g class="entity" data-qualified-name="SpecIssue" data-source-line="32" id="ent0013"><rect fill="#F1F1F1" height="50" rx="12.5" ry="12.5" style="stroke:#181818;stroke-width:0.5;" width="193.8717" x="329.71" y="1070.59"/><line style="stroke:#181818;stroke-width:0.5;" x1="329.71" x2="523.5817" y1="1096.8869" y2="1096.8869"/><text fill="#000000" font-family="sans-serif" font-size="14" lengthAdjust="spacing" textLength="173.8717" x="339.71" y="1088.5851">&#20181;&#27096;&#20596;&#12398;&#35506;&#38988; (Spec issue)</text></g><g class="start_entity" data-qualified-name=".start." data-source-line="34" id="ent0027"><ellipse cx="226.65" cy="16" fill="#222222" rx="10" ry="10" style="stroke:#222222;stroke-width:1;"/></g><g class="end_entity" data-qualified-name=".end." data-source-line="40" id="ent0033"><ellipse cx="226.65" cy="1208.59" fill="none" rx="11" ry="11" style="stroke:#222222;stroke-width:1;"/><ellipse cx="226.65" cy="1208.59" fill="#222222" rx="6" ry="6" style="stroke:#222222;stroke-width:1;"/></g><!--link *start* to Seed--><g class="link" data-entity-1="ent0027" data-entity-2="ent0001" data-link-type="dependency" data-source-line="34" id="lnk28"><path d="M226.65,26.2 C226.65,40.33 226.65,64.25 226.65,97.56" fill="none" id="*start*-to-Seed" style="stroke:#181818;stroke-width:1;"/><polygon fill="#181818" points="226.65,102.56,230.65,93.56,226.65,97.56,222.65,93.56,226.65,102.56" style="stroke:#181818;stroke-width:1;stroke-linejoin:miter;stroke-miterlimit:10;"/><text fill="#000000" font-family="sans-serif" font-size="13" lengthAdjust="spacing" textLength="78.0001" x="227.65" y="69.0669">&#26032;&#35215;&#12524;&#12499;&#12517;&#12540;</text></g><!--link Seed to Review--><g class="link" data-entity-1="ent0001" data-entity-2="ent0006" data-link-type="dependency" data-source-line="35" id="lnk29"><path d="M226.65,450.56 C226.65,475.39 226.65,496.27 226.65,522.02" fill="none" id="Seed-to-Review" style="stroke:#181818;stroke-width:1;"/><polygon fill="#181818" points="226.65,527.02,230.65,518.02,226.65,522.02,222.65,518.02,226.65,527.02" style="stroke:#181818;stroke-width:1;stroke-linejoin:miter;stroke-miterlimit:10;"/><text fill="#000000" font-family="sans-serif" font-size="13" lengthAdjust="spacing" textLength="91.0001" x="227.65" y="493.3569">&#21021;&#26399;&#12514;&#12487;&#12523;&#23436;&#25104;</text></g><!--link Review to Agreed--><g class="link" data-entity-1="ent0006" data-entity-2="ent0011" data-link-type="dependency" data-source-line="36" id="lnk30"><path d="M115.09,993.73 C100.27,1024.58 89.3332,1047.3522 80.5132,1065.7322" fill="none" id="Review-to-Agreed" style="stroke:#181818;stroke-width:1;"/><polygon fill="#181818" points="78.35,1070.24,85.85,1063.8564,80.5132,1065.7322,78.6374,1060.3953,78.35,1070.24" style="stroke:#181818;stroke-width:1;stroke-linejoin:miter;stroke-miterlimit:10;"/><text fill="#000000" font-family="sans-serif" font-size="13" lengthAdjust="spacing" textLength="104.0001" x="98.26" y="1036.6569">&#25351;&#25688;&#12364;&#12377;&#12409;&#12390;&#35299;&#28040;</text></g><!--link Review to Postponed--><g class="link" data-entity-1="ent0006" data-entity-2="ent0012" data-link-type="dependency" data-source-line="37" id="lnk31"><path d="M226.65,993.73 C226.65,1024.58 226.65,1046.86 226.65,1065.24" fill="none" id="Review-to-Postponed" style="stroke:#181818;stroke-width:1;"/><polygon fill="#181818" points="226.65,1070.24,230.65,1061.24,226.65,1065.24,222.65,1061.24,226.65,1070.24" style="stroke:#181818;stroke-width:1;stroke-linejoin:miter;stroke-miterlimit:10;"/><text fill="#000000" font-family="sans-serif" font-size="13" lengthAdjust="spacing" textLength="117.0001" x="227.65" y="1036.6569">&#26410;&#35299;&#27770;&#12398;&#35542;&#28857;&#12364;&#27531;&#12427;</text></g><!--link Review to SpecIssue--><g class="link" data-entity-1="ent0006" data-entity-2="ent0013" data-link-type="dependency" data-source-line="38" id="lnk32"><path d="M366.1,993.73 C384.62,1024.58 398.4272,1047.5727 409.4572,1065.9527" fill="none" id="Review-to-SpecIssue" style="stroke:#181818;stroke-width:1;"/><polygon fill="#181818" points="412.03,1070.24,410.8287,1060.4647,409.4572,1065.9527,403.9691,1064.5812,412.03,1070.24" style="stroke:#181818;stroke-width:1;stroke-linejoin:miter;stroke-miterlimit:10;"/><text fill="#000000" font-family="sans-serif" font-size="13" lengthAdjust="spacing" textLength="104.0001" x="394.12" y="1036.6569">&#19978;&#27969;&#12398;&#35201;&#27714;&#12395;&#21839;&#38988;</text></g><!--link Agreed to *end*--><g class="link" data-entity-1="ent0011" data-entity-2="ent0033" data-link-type="dependency" data-source-line="40" id="lnk34"><path d="M84.4,1120.81 C96.4,1135.84 113.35,1154.69 131.65,1167.59 C159.15,1186.97 192.6827,1198.0854 211.1127,1203.3554" fill="none" id="Agreed-to-*end*" style="stroke:#181818;stroke-width:1;"/><polygon fill="#181818" points="215.92,1204.73,208.3665,1198.4098,211.1127,1203.3554,206.1671,1206.1015,215.92,1204.73" style="stroke:#181818;stroke-width:1;stroke-linejoin:miter;stroke-miterlimit:10;"/><text fill="#000000" font-family="sans-serif" font-size="13" lengthAdjust="spacing" textLength="85.3633" x="132.65" y="1163.6569">Save &amp; finish</text></g><!--link Postponed to *end*--><g class="link" data-entity-1="ent0012" data-entity-2="ent0033" data-link-type="dependency" data-source-line="41" id="lnk35"><path d="M226.65,1120.95 C226.65,1144.82 226.65,1175.05 226.65,1192.3" fill="none" id="Postponed-to-*end*" style="stroke:#181818;stroke-width:1;"/><polygon fill="#181818" points="226.65,1197.3,230.65,1188.3,226.65,1192.3,222.65,1188.3,226.65,1197.3" style="stroke:#181818;stroke-width:1;stroke-linejoin:miter;stroke-miterlimit:10;"/><text fill="#000000" font-family="sans-serif" font-size="13" lengthAdjust="spacing" textLength="85.3633" x="227.65" y="1163.6569">Save &amp; finish</text></g><!--link SpecIssue to *end*--><g class="link" data-entity-1="ent0013" data-entity-2="ent0033" data-link-type="dependency" data-source-line="42" id="lnk36"><path d="M394.12,1121.02 C373.9,1135.59 347,1153.86 321.65,1167.59 C292.07,1183.62 259.4089,1195.999 241.6489,1202.339" fill="none" id="SpecIssue-to-*end*" style="stroke:#181818;stroke-width:1;"/><polygon fill="#181818" points="236.94,1204.02,246.7609,1204.7613,241.6489,1202.339,244.0713,1197.227,236.94,1204.02" style="stroke:#181818;stroke-width:1;stroke-linejoin:miter;stroke-miterlimit:10;"/><text fill="#000000" font-family="sans-serif" font-size="13" lengthAdjust="spacing" textLength="85.3633" x="349.62" y="1163.6569">Save &amp; finish</text></g><?plantuml-src TLHDJnf16BxlhvXugDZKH8_rq8J4fYNHn6YR7feUYAoMb09XGMEQ9iwk2WgAjaAn27uY1YhnMmIiFsROsUNaN-Wxiy1k1I-RtPddUTxd_TfUDEfpYPuHttH8H0INYFA7A3-9aYDAhNwtJNCdH4aG1PureHTfAzTqCTh0Drg-ggOlY7n5b2IHgqHHY19vg4Nim-Fz0mClNw31nkyrzUmG5FN3iBeUCPWFjMM2YxIIfD5Ta2Fo3UWIPPcMhW1FyB4rVFDG_a7cCS4P8iS8pi8J3QAkueoEVn5yfE_1onQPbmL12Zg38kfv5AW7EIKq8Oekz4r0wEFpJwY__nKSUCJ9uBivlmY7BQAoJvGmKOfgDWfE6hXCLx9DUYVQxe3ijCqT6ba7SFrlfh5Rus2xuute5GC0Ci5wkA16bWZEZtcStk3xqH6WwCSf_VwKKzw6lZgz7m9kAqMDPEZsZkcf58D873qSS4u5HHT0JLyyAJCo6aBw4QPdCiIXwJB12r0grBxbOz39Dsq0Vy8N2aooCIcYbcd4N9_NY1m5hYKOuvgcB2hMY-zcWphwpjCQ5sVSukn_NN9u9JyOT7kdktG99aBRh-Y5LQB0J6PPp-KYc-HgYk0DBjcDp_fMrYyAQY8EH1eBQuSLes_IbmvWIKrdjPDD0DRlI_JaWCRNwLx4W7kbMJ7mbBMo6b-bgLsRtU_tpFK1NqjVqhMSeSBvhrtkfZ7JfT55xWCwG4zXm46h00NNv5k2OIVaPl4D38TRVBJV-Kqp0bFYjg5xQXmaDzJ575imhjG2TPJxaIjJZCXtlDQte6TafTqSDz9BbWx3cjA5EBBPfmEmU7r6lVXx2r6_psY9BMGRyqb1ly_R0hK_sxXgWkPJAhva-ryuR-p5a6q2V26t98L4WyI-7UnJ4CprXds7l9Ed-b7SEcy2ls6GvhWDeQwB9ZIlUOMvSoON2zED5E_35i6txE-JFw3N4IkudG73RnSOuAp2p1UJHWzfASegRw6q_GEbNbwXLvZXZVN5HPXJo5eGcYuOWMK92-gS4T4pDENskgNFWXdtAOGPvWd4Fm00?></g></svg>