<?plantuml 1.2026.1?><svg xmlns="http://www.w3.org/2000/svg" xmlns:xlink="http://www.w3.org/1999/xlink" contentStyleType="text/css" data-diagram-type="STATE" height="794px" preserveAspectRatio="none" style="width:869px;height:794px;background:#FFFFFF;" version="1.1" viewBox="0 0 869 794" width="869px" zoomAndPan="magnify"><defs/><g><g><rect fill="#F1F1F1" height="50" rx="12.5" ry="12.5" style="stroke:#181818;stroke-width:0.5;" width="117.9996" x="339.85" y="103"/><line style="stroke:#181818;stroke-width:0.5;" x1="339.85" x2="457.8496" y1="129.2969" y2="129.2969"/><text fill="#000000" font-family="sans-serif" font-size="14" lengthAdjust="spacing" textLength="97.9996" x="349.85" y="120.9951">&#12514;&#12487;&#12523;&#22411;&#12434;&#36984;&#25246;</text></g><g><rect fill="#F1F1F1" height="50" rx="12.5" ry="12.5" style="stroke:#181818;stroke-width:0.5;" width="117.7057" x="250" y="230"/><line style="stroke:#181818;stroke-width:0.5;" x1="250" x2="367.7057" y1="256.2969" y2="256.2969"/><text fill="#000000" font-family="sans-serif" font-size="14" lengthAdjust="spacing" textLength="97.7057" x="260" y="247.9951">AI&#12395;&#29983;&#25104;&#12434;&#20381;&#38972;</text></g><g><rect fill="#F1F1F1" height="50" rx="12.5" ry="12.5" style="stroke:#181818;stroke-width:0.5;" width="169.399" x="415.15" y="230"/><line style="stroke:#181818;stroke-width:0.5;" x1="415.15" x2="584.549" y1="256.2969" y2="256.2969"/><text fill="#000000" font-family="sans-serif" font-size="14" lengthAdjust="spacing" textLength="149.399" x="425.15" y="247.9951">&#33258;&#20998;&#12391;PlantUML&#12434;&#35352;&#36848;</text></g><g><rect fill="#F1F1F1" height="50" rx="12.5" ry="12.5" style="stroke:#181818;stroke-width:0.5;" width="201.9992" x="296.85" y="357"/><line style="stroke:#181818;stroke-width:0.5;" x1="296.85" x2="498.8492" y1="383.2969" y2="383.2969"/><text fill="#000000" font-family="sans-serif" font-size="14" lengthAdjust="spacing" textLength="181.9992" x="306.85" y="374.9951">&#12514;&#12487;&#12523;&#12398;&#30906;&#35469;&#12539;&#12510;&#12540;&#12459;&#12540;&#20184;&#12369;</text></g><g><rect fill="#F1F1F1" height="50" rx="12.5" ry="12.5" style="stroke:#181818;stroke-width:0.5;" width="117.7057" x="21" y="484"/><line style="stroke:#181818;stroke-width:0.5;" x1="21" x2="138.7057" y1="510.2969" y2="510.2969"/><text fill="#000000" font-family="sans-serif" font-size="14" lengthAdjust="spacing" textLength="97.7057" x="31" y="501.9951">AI&#12408;&#36074;&#21839;&#12539;&#25351;&#31034;</text></g><g><rect fill="#F1F1F1" height="50" rx="12.5" ry="12.5" style="stroke:#181818;stroke-width:0.5;" width="145.7056" x="7" y="611"/><line style="stroke:#181818;stroke-width:0.5;" x1="7" x2="152.7056" y1="637.2969" y2="637.2969"/><text fill="#000000" font-family="sans-serif" font-size="14" lengthAdjust="spacing" textLength="125.7056" x="17" y="628.9951">AI&#12398;&#22238;&#31572;&#12539;&#20462;&#27491;&#25552;&#26696;</text></g><g><rect fill="#F1F1F1" height="50" rx="12.5" ry="12.5" style="stroke:#181818;stroke-width:0.5;" width="224.4485" x="96.63" y="738"/><line style="stroke:#181818;stroke-width:0.5;" x1="96.63" x2="321.0785" y1="764.2969" y2="764.2969"/><text fill="#000000" font-family="sans-serif" font-size="14" lengthAdjust="spacing" textLength="204.4485" x="106.63" y="755.9951">&#12514;&#12487;&#12523;&#12408;&#21453;&#26144;(Apply)&#12539;&#30452;&#25509;&#20462;&#27491;</text></g><g><rect fill="#F1F1F1" height="50" rx="12.5" ry="12.5" style="stroke:#181818;stroke-width:0.5;" width="113.7069" x="262" y="484"/><line style="stroke:#181818;stroke-width:0.5;" x1="262" x2="375.7069" y1="510.2969" y2="510.2969"/><text fill="#000000" font-family="sans-serif" font-size="14" lengthAdjust="spacing" textLength="93.7069" x="272" y="501.9951">&#21512;&#24847; (Agreed)</text></g><g><rect fill="#F1F1F1" height="50" rx="12.5" ry="12.5" style="stroke:#181818;stroke-width:0.5;" width="136.9901" x="410.36" y="484"/><line style="stroke:#181818;stroke-width:0.5;" x1="410.36" x2="547.3501" y1="510.2969" y2="510.2969"/><text fill="#000000" font-family="sans-serif" font-size="14" lengthAdjust="spacing" textLength="116.9901" x="420.36" y="501.9951">&#20445;&#30041; (Postponed)</text></g><g><rect fill="#F1F1F1" height="50" rx="12.5" ry="12.5" style="stroke:#181818;stroke-width:0.5;" width="193.8717" x="581.92" y="484"/><line style="stroke:#181818;stroke-width:0.5;" x1="581.92" x2="775.7917" y1="510.2969" y2="510.2969"/><text fill="#000000" font-family="sans-serif" font-size="14" lengthAdjust="spacing" textLength="173.8717" x="591.92" y="501.9951">&#20181;&#27096;&#20596;&#12398;&#35506;&#38988; (Spec issue)</text></g><ellipse cx="398.85" cy="16" fill="#222222" rx="10" ry="10" style="stroke:#222222;stroke-width:1;"/><ellipse cx="481.85" cy="636" fill="none" rx="11" ry="11" style="stroke:#222222;stroke-width:1;"/><ellipse cx="481.85" cy="636" fill="#222222" rx="6" ry="6" style="stroke:#222222;stroke-width:1;"/><!--link *start* to SelectType--><g class="link" data-entity-1="ent0002" data-entity-2="ent0002" data-link-type="dependency" data-source-line="15" id="lnk3"><path d="M398.85,26.38 C398.85,43.11 398.85,72.59 398.85,96.63" fill="none" id="*start*-to-SelectType" style="stroke:#181818;stroke-width:1;"/><polygon fill="#181818" points="398.85,102.63,402.85,93.63,398.85,97.63,394.85,93.63,398.85,102.63" style="stroke:#181818;stroke-width:1;"/><text fill="#000000" font-family="sans-serif" font-size="13" lengthAdjust="spacing" textLength="78.0001" x="399.85" y="69.0669">&#26032;&#35215;&#12524;&#12499;&#12517;&#12540;</text></g><!--link SelectType to AIGenerate--><g class="link" data-entity-1="ent0002" data-entity-2="ent0003" data-link-type="dependency" data-source-line="16" id="lnk4"><path d="M339.5,141.98 C317.52,149.98 294.81,162.74 281.85,183 C272.61,197.44 276.4678,210.4779 285.6978,224.7879" fill="none" id="SelectType-to-AIGenerate" style="stroke:#181818;stroke-width:1;"/><polygon fill="#181818" points="288.95,229.83,287.4331,220.0987,286.2398,225.6282,280.7103,224.4349,288.95,229.83" style="stroke:#181818;stroke-width:1;"/><text fill="#000000" font-family="sans-serif" font-size="13" lengthAdjust="spacing" textLength="186.0118" x="282.85" y="196.0669">&#35201;&#27714;&#12434;&#26360;&#12356;&#12390; Generate Model</text></g><!--link SelectType to HumanWrite--><g class="link" data-entity-1="ent0002" data-entity-2="ent0004" data-link-type="dependency" data-source-line="17" id="lnk5"><path d="M441.94,153.43 C453.53,161.63 465.22,171.62 473.85,183 C484.24,196.7 489.2484,209.1768 493.1784,223.7568" fill="none" id="SelectType-to-HumanWrite" style="stroke:#181818;stroke-width:1;"/><polygon fill="#181818" points="494.74,229.55,496.2598,219.8191,493.4387,224.7223,488.5355,221.9012,494.74,229.55" style="stroke:#181818;stroke-width:1;"/><text fill="#000000" font-family="sans-serif" font-size="13" lengthAdjust="spacing" textLength="170.0601" x="484.45" y="196.0669">Source &#12395; PlantUML &#12434;&#36028;&#12427;</text></g><!--link AIGenerate to Inspecting--><g class="link" data-entity-1="ent0003" data-entity-2="ent0005" data-link-type="dependency" data-source-line="18" id="lnk6"><path d="M316.64,280.3 C321.91,294.65 329.74,312.73 339.85,327 C347.49,337.78 353.0925,344.0536 362.6925,352.7036" fill="none" id="AIGenerate-to-Inspecting" style="stroke:#181818;stroke-width:1;"/><polygon fill="#181818" points="367.15,356.72,363.1414,347.7238,363.4355,353.373,357.7862,353.6671,367.15,356.72" style="stroke:#181818;stroke-width:1;"/><text fill="#000000" font-family="sans-serif" font-size="13" lengthAdjust="spacing" textLength="91.0001" x="340.85" y="323.0669">&#21021;&#26399;&#12514;&#12487;&#12523;&#23436;&#25104;</text></g><!--link HumanWrite to Inspecting--><g class="link" data-entity-1="ent0004" data-entity-2="ent0005" data-link-type="dependency" data-source-line="19" id="lnk7"><path d="M479.94,280.4 C461.97,302.42 439.4644,330.0121 421.5044,352.0121" fill="none" id="HumanWrite-to-Inspecting" style="stroke:#181818;stroke-width:1;"/><polygon fill="#181818" points="417.71,356.66,426.5001,352.2178,420.872,352.7868,420.303,347.1586,417.71,356.66" style="stroke:#181818;stroke-width:1;"/><text fill="#000000" font-family="sans-serif" font-size="13" lengthAdjust="spacing" textLength="91.0001" x="455.96" y="323.0669">&#21021;&#26399;&#12514;&#12487;&#12523;&#23436;&#25104;</text></g><!--link Inspecting to Asking--><g class="link" data-entity-1="ent0005" data-entity-2="ent0006" data-link-type="dependency" data-source-line="21" id="lnk8"><path d="M296.52,386.21 C213.26,391.23 104.68,404.1 76.85,437 C66.18,449.62 66.0802,462.6504 69.7602,477.7604" fill="none" id="Inspecting-to-Asking" style="stroke:#181818;stroke-width:1;"/><polygon fill="#181818" points="71.18,483.59,72.9367,473.8991,69.9968,478.732,65.1639,475.7921,71.18,483.59" style="stroke:#181818;stroke-width:1;"/><text fill="#000000" font-family="sans-serif" font-size="13" lengthAdjust="spacing" textLength="104.0001" x="77.85" y="450.0669">&#27671;&#12395;&#12394;&#12427;&#28857;&#12364;&#12354;&#12427;</text></g><!--link Asking to Answering--><g class="link" data-entity-1="ent0006" data-entity-2="ent0007" data-link-type="dependency" data-source-line="22" id="lnk9"><path d="M79.85,534.4 C79.85,556.42 79.85,582.66 79.85,604.66" fill="none" id="Asking-to-Answering" style="stroke:#181818;stroke-width:1;"/><polygon fill="#181818" points="79.85,610.66,83.85,601.66,79.85,605.66,75.85,601.66,79.85,610.66" style="stroke:#181818;stroke-width:1;"/></g><!--link Answering to Editing--><g class="link" data-entity-1="ent0007" data-entity-2="ent0008" data-link-type="dependency" data-source-line="23" id="lnk10"><path d="M72.03,661.32 C68.86,676.02 67.78,694.48 76.85,708 C85.27,720.54 91.9299,727.2474 105.1799,734.6374" fill="none" id="Answering-to-Editing" style="stroke:#181818;stroke-width:1;"/><polygon fill="#181818" points="110.42,737.56,104.5083,729.6827,106.0533,735.1245,100.6115,736.6695,110.42,737.56" style="stroke:#181818;stroke-width:1;"/><text fill="#000000" font-family="sans-serif" font-size="13" lengthAdjust="spacing" textLength="104.0001" x="77.85" y="704.0669">&#25552;&#26696;&#12434;&#21463;&#12369;&#20837;&#12428;&#12427;</text></g><!--link Editing to Inspecting--><g class="link" data-entity-1="ent0008" data-entity-2="ent0005" data-link-type="dependency" data-source-line="24" id="lnk11"><path d="M321.48,756.05 C461.19,741.79 693.12,693.87 792.85,534 C862.94,421.65 644.1617,392.9761 505.2417,385.6461" fill="none" id="Editing-to-Inspecting" style="stroke:#181818;stroke-width:1;"/><polygon fill="#181818" points="499.25,385.33,508.0267,389.7987,504.2431,385.5935,508.4483,381.8098,499.25,385.33" style="stroke:#181818;stroke-width:1;"/></g><!--link Inspecting to Editing--><g class="link" data-entity-1="ent0005" data-entity-2="ent0008" data-link-type="dependency" data-source-line="25" id="lnk12"><path d="M336.49,407.38 C303.51,423.86 265.48,449.05 244.85,484 C196.13,566.57 200.5106,680.7171 205.3706,731.6971" fill="none" id="Inspecting-to-Editing" style="stroke:#181818;stroke-width:1;"/><polygon fill="#181818" points="205.94,737.67,209.0678,728.331,205.4655,732.6926,201.1039,729.0902,205.94,737.67" style="stroke:#181818;stroke-width:1;"/><text fill="#000000" font-family="sans-serif" font-size="13" lengthAdjust="spacing" textLength="104.0001" x="215.05" y="577.0669">&#12477;&#12540;&#12473;&#12434;&#30452;&#25509;&#32232;&#38598;</text></g><!--link Inspecting to Agreed--><g class="link" data-entity-1="ent0005" data-entity-2="ent0009" data-link-type="dependency" data-source-line="27" id="lnk13"><path d="M350.55,407.37 C339.63,415.31 329.33,425.18 322.85,437 C315.14,451.07 313.8267,463.1736 314.7967,477.5736" fill="none" id="Inspecting-to-Agreed" style="stroke:#181818;stroke-width:1;"/><polygon fill="#181818" points="315.2,483.56,318.5861,474.3115,314.864,478.5713,310.6042,474.8492,315.2,483.56" style="stroke:#181818;stroke-width:1;"/><text fill="#000000" font-family="sans-serif" font-size="13" lengthAdjust="spacing" textLength="104.0001" x="323.85" y="450.0669">&#25351;&#25688;&#12364;&#12377;&#12409;&#12390;&#35299;&#28040;</text></g><!--link Inspecting to Postponed--><g class="link" data-entity-1="ent0005" data-entity-2="ent0010" data-link-type="dependency" data-source-line="28" id="lnk14"><path d="M413.66,407.4 C427.94,429.42 445.5565,456.6252 459.8165,478.6252" fill="none" id="Inspecting-to-Postponed" style="stroke:#181818;stroke-width:1;"/><polygon fill="#181818" points="463.08,483.66,461.5413,473.9321,460.3604,479.4643,454.8282,478.2834,463.08,483.66" style="stroke:#181818;stroke-width:1;"/><text fill="#000000" font-family="sans-serif" font-size="13" lengthAdjust="spacing" textLength="117.0001" x="444.2" y="450.0669">&#26410;&#35299;&#27770;&#12398;&#35542;&#28857;&#12364;&#27531;&#12427;</text></g><!--link Inspecting to SpecIssue--><g class="link" data-entity-1="ent0005" data-entity-2="ent0011" data-link-type="dependency" data-source-line="29" id="lnk15"><path d="M492.01,407.48 C517.79,415.54 545.37,425.45 569.85,437 C597.22,449.91 620.9185,465.2713 641.9485,480.3013" fill="none" id="Inspecting-to-SpecIssue" style="stroke:#181818;stroke-width:1;"/><polygon fill="#181818" points="646.83,483.79,641.8336,475.3026,642.7621,480.8827,637.182,481.8112,646.83,483.79" style="stroke:#181818;stroke-width:1;"/><text fill="#000000" font-family="sans-serif" font-size="13" lengthAdjust="spacing" textLength="104.0001" x="602.27" y="450.0669">&#19978;&#27969;&#12398;&#35201;&#27714;&#12395;&#21839;&#38988;</text></g><!--link Agreed to *end*--><g class="link" data-entity-1="ent0009" data-entity-2="ent0016" data-link-type="dependency" data-source-line="31" id="lnk17"><path d="M338,534.19 C350.37,548.85 367.37,567.29 384.85,581 C413.82,603.71 448.0763,620.1551 466.3863,628.2851" fill="none" id="Agreed-to-*end*" style="stroke:#181818;stroke-width:1;"/><polygon fill="#181818" points="471.87,630.72,465.2677,623.4118,467.3002,628.6909,462.0211,630.7235,471.87,630.72" style="stroke:#181818;stroke-width:1;"/><text fill="#000000" font-family="sans-serif" font-size="13" lengthAdjust="spacing" textLength="85.3633" x="385.85" y="577.0669">Save &amp; finish</text></g><!--link Postponed to *end*--><g class="link" data-entity-1="ent0010" data-entity-2="ent0016" data-link-type="dependency" data-source-line="32" id="lnk18"><path d="M479.44,534.4 C480.1,561.82 480.9833,599.0818 481.4633,618.7018" fill="none" id="Postponed-to-*end*" style="stroke:#181818;stroke-width:1;"/><polygon fill="#181818" points="481.61,624.7,485.3887,615.6049,481.4877,619.7015,477.3911,615.8005,481.61,624.7" style="stroke:#181818;stroke-width:1;"/><text fill="#000000" font-family="sans-serif" font-size="13" lengthAdjust="spacing" textLength="85.3633" x="481.53" y="577.0669">Save &amp; finish</text></g><!--link SpecIssue to *end*--><g class="link" data-entity-1="ent0011" data-entity-2="ent0016" data-link-type="dependency" data-source-line="33" id="lnk19"><path d="M644.99,534.38 C625.12,548.42 599.37,566.17 575.85,581 C545.6,600.07 513.7524,617.7162 496.6124,627.0262" fill="none" id="SpecIssue-to-*end*" style="stroke:#181818;stroke-width:1;"/><polygon fill="#181818" points="491.34,629.89,501.1579,629.1092,495.7337,627.5035,497.3394,622.0793,491.34,629.89" style="stroke:#181818;stroke-width:1;"/><text fill="#000000" font-family="sans-serif" font-size="13" lengthAdjust="spacing" textLength="85.3633" x="602.74" y="577.0669">Save &amp; finish</text></g><?plantuml-src ZPDTRz9W5CVl-ocUxCAXoPBTweK9YKP9jcHn6Y-C5sIhauY5KD3iycdtKWUJJGUoiB4tWGKSsViOCFTX3drQhlOLFC_JqLRC4c-QFktlVyx_zFmxJCPZqt9qB3QJaWdG1kY_GFyEUXdqJlTgWvKFGC-1ZjUED4oifNCsd-xH2wlQDeide9s1dWUj3ReEkd7JCO9FNeoCZZwywNm1McUjF4jlIvAQ32TbCWJwBkYBeDVDKXgqRptQP4kb8H9MoQGSbQUIBsVZSfyDXb1lhMqnOmNHxk_DtdP7eC7GCrcH4mZrKNknPXeBGAiJqR2IV3K-XW9xls1V7mh1yzJ7iF8w4V44hWySrzfjsRLbq7624eu8MftFtIu0NHNgaAB6qLf4cV4xQzedDJENHHdBB5e_MuupzSC0rZ2B9UjW3R7kTOCTxB7i2jin75XHFyi97-yprJIpowom7GZ6uz7P-wYsYgViQzcf8THFfoD-I-QAmUQo912SISZoz7sdWRZl4zthJIktJW8JCJKPZobzo3swN3l7gWMJdg9vktRSsycGm2H-019HrPJiYFWvn8-IzER1Mp8oyjYtF_A8iFoXNSdwSoJvtdFSso7YTeMo8mrtnefDe7D0AyHzAw8vgFOMYkh9M2ennODR9_tr4xx_OrnbMl8ruaflcQWqZKssiULbif71h4c-ul-fa7oC64x4W7-7mnze2sWDdLZQ9T0CK4suSWW1kp5mxyJpsmNpAY8pE9APnNAhvdmPj0olqaV-jZdenYi4sfK8-2NMSW9bNUptYWl_3Y2Imrjd5jbgGVXU1ue3LEpg7Zit1WLkYhXceyQXenOFK3tlpCqQQUvuGERc26NTvX8xerpZf87MyVV2z4dIhHiku6d3ZOS_oUGUUHTH8kfxoUjz5-6rkOFu0m00?></g></svg>